HIERARCHY
ROOT Hips
{
	OFFSET 0.00000 0.00000 0.00000
	CHANNELS 6 Xposition Yposition Zposition Zrotation Yrotation Xrotation 
	JOINT LHipJoint
	{
		OFFSET 0 0 0
		CHANNELS 3 Zrotation Yrotation Xrotation
		JOINT LeftUpLeg
		{
			OFFSET 1.61328 -1.70571 0.84375
			CHANNELS 3 Zrotation Yrotation Xrotation
			JOINT LeftLeg
			{
				OFFSET 2.32400 -6.38513 0.00000
				CHANNELS 3 Zrotation Yrotation Xrotation
				JOINT LeftFoot
				{
					OFFSET 2.58843 -7.11166 0.00000
					CHANNELS 3 Zrotation Yrotation Xrotation
					JOINT LeftToeBase
					{
						OFFSET 0.17200 -0.47257 2.47970
						CHANNELS 3 Zrotation Yrotation Xrotation
						End Site
						{
							OFFSET 0.00000 -0.00000 1.26912
						}
					}
				}
			}
		}
	}
	JOINT RHipJoint
	{
		OFFSET 0 0 0
		CHANNELS 3 Zrotation Yrotation Xrotation
		JOINT RightUpLeg
		{
			OFFSET -1.49930 -1.70570 0.84375
			CHANNELS 3 Zrotation Yrotation Xrotation
			JOINT RightLeg
			{
				OFFSET -2.30458 -6.33178 0.00000
				CHANNELS 3 Zrotation Yrotation Xrotation
				JOINT RightFoot
				{
					OFFSET -2.62261 -7.20556 0.00000
					CHANNELS 3 Zrotation Yrotation Xrotation
					JOINT RightToeBase
					{
						OFFSET -0.18709 -0.51403 2.51340
						CHANNELS 3 Zrotation Yrotation Xrotation
						End Site
						{
							OFFSET -0.00000 -0.00000 1.28858
						}
					}
				}
			}
		}
	}
	JOINT LowerBack
	{
		OFFSET 0 0 0
		CHANNELS 3 Zrotation Yrotation Xrotation
		JOINT Spine
		{
			OFFSET -0.03798 2.19274 -0.19881
			CHANNELS 3 Zrotation Yrotation Xrotation
			JOINT Spine1
			{
				OFFSET -0.00024 2.19460 0.05248
				CHANNELS 3 Zrotation Yrotation Xrotation
				JOINT Neck
				{
					OFFSET 0 0 0
					CHANNELS 3 Zrotation Yrotation Xrotation
					JOINT Neck1
					{
						OFFSET -0.00746 1.82323 0.17286
						CHANNELS 3 Zrotation Yrotation Xrotation
						JOINT Head
						{
							OFFSET 0.11826 1.82121 -0.27841
							CHANNELS 3 Zrotation Yrotation Xrotation
							End Site
							{
								OFFSET 0.03496 1.85543 -0.11495
							}
						}
					}
				}
				JOINT LeftShoulder
				{
					OFFSET 0 0 0
					CHANNELS 3 Zrotation Yrotation Xrotation
					JOINT LeftArm
					{
						OFFSET 3.71926 0.78840 0.25473
						CHANNELS 3 Zrotation Yrotation Xrotation
						JOINT LeftForeArm
						{
							OFFSET 5.37587 -0.00000 0.00000
							CHANNELS 3 Zrotation Yrotation Xrotation
							JOINT LeftHand
							{
								OFFSET 3.35977 -0.00000 0.00000
								CHANNELS 3 Zrotation Yrotation Xrotation
								JOINT LeftFingerBase
								{
									OFFSET 0 0 0
									CHANNELS 3 Zrotation Yrotation Xrotation
									JOINT LeftHandIndex1
									{
										OFFSET 0.56186 -0.00000 0.00000
										CHANNELS 3 Zrotation Yrotation Xrotation
										End Site
										{
											OFFSET 0.45299 -0.00000 0.00000
										}
									}
								}
								JOINT LThumb
								{
									OFFSET 0 0 0
									CHANNELS 3 Zrotation Yrotation Xrotation
									End Site
									{
										OFFSET 0.45990 -0.00000 0.45990
									}
								}
							}
						}
					}
				}
				JOINT RightShoulder
				{
					OFFSET 0 0 0
					CHANNELS 3 Zrotation Yrotation Xrotation
					JOINT RightArm
					{
						OFFSET -3.65136 0.56074 0.01624
						CHANNELS 3 Zrotation Yrotation Xrotation
						JOINT RightForeArm
						{
							OFFSET -5.22819 -0.00000 0.00000
							CHANNELS 3 Zrotation Yrotation Xrotation
							JOINT RightHand
							{
								OFFSET -3.40764 -0.00000 0.00000
								CHANNELS 3 Zrotation Yrotation Xrotation
								JOINT RightFingerBase
								{
									OFFSET 0 0 0
									CHANNELS 3 Zrotation Yrotation Xrotation
									JOINT RightHandIndex1
									{
										OFFSET -0.58325 -0.00000 0.00000
										CHANNELS 3 Zrotation Yrotation Xrotation
										End Site
										{
											OFFSET -0.47024 -0.00000 0.00000
										}
									}
								}
								JOINT RThumb
								{
									OFFSET 0 0 0
									CHANNELS 3 Zrotation Yrotation Xrotation
									End Site
									{
										OFFSET -0.47742 -0.00000 0.47742
									}
								}
							}
						}
					}
				}
			}
		}
	}
}
MOTION
Frames: 14
Frame Time: 0.0188679
0.00 0.00 0.00 0 0 0 0 0 0 -21 0 0 0 0 0 0 0 0 0 0 0 0 0 0 21 0 0 0 0 0 0 0 0 0 0 0 0 0 0 0 0 0 0 0 0 0 0 -16 0 0 21 0 0 11 0 0 0 -8 0 0 0 0 0 0 0 0 0 0 0 0 0 0 0 0 0 0 0 0 8 0 0 0 0 0 0 0 0 0 0 0 0 0 0 0 0 0
0.00 0.00 0.00 -123.2890 -86.7397 126.5090 0.0000 0.0000 0.0000 -17.3819 2.3071 -14.3272 3.5370 11.5174 34.0455 2.0663 -0.0504 -27.2112 0.4672 -4.3841 -12.1598 0.0000 0.0000 0.0000 18.9117 7.5519 -14.8239 -5.1932 -13.5981 41.6508 -3.1737 6.1191 -32.4914 -0.1066 2.1057 -5.7980 -0.7231 0.1777 1.4252 0.8153 0.1850 2.8710 1.2415 0.0511 2.1389 -2.4256 -1.9789 -9.5176 7.7395 -2.4960 -7.1698 2.8325 -1.3231 -0.5032 0.0000 -0.0000 0.0000 -77.3520 8.3323 41.7508 17.4080 -27.3925 -4.2734 -0.0000 0.0000 -13.3848 17.7708 19.7722 6.1878 -7.1250 0.0000 -0.0000 -10.5781 50.3618 -1.4116 0.0000 -0.0000 0.0000 81.8480 -5.5568 44.2442 -23.4379 34.5642 -7.3852 0.0000 -0.0000 -20.4906 -28.2448 -0.2425 0.1303 7.1250 -0.0000 -0.0000 -1.3277 -30.2537 -0.4781
0.00 0.00 0.00 -150.6380 -84.6999 156.4340 0.0000 0.0000 0.0000 -19.0427 3.7091 -11.8709 2.4822 9.8055 28.3492 2.3221 0.5365 -29.0521 0.4569 -4.3361 -12.0243 0.0000 0.0000 0.0000 17.0028 8.6068 -24.9901 -9.5271 -17.1352 57.8957 -2.5593 6.6127 -28.9634 -0.5067 4.5629 -12.6660 -1.9212 -0.2566 2.1378 0.2515 -0.3860 1.0528 1.3428 -0.2038 -0.1054 -1.9544 -0.7015 -10.8261 7.3790 -0.8745 -9.3238 2.6865 -0.6036 -1.0758 0.0000 -0.0000 0.0000 -70.3003 17.2102 42.4649 25.0296 -36.2342 -8.3074 -0.0000 0.0000 -17.7188 14.3079 20.5968 5.1269 -7.1250 0.0000 -0.0000 -14.2213 50.6316 -2.0087 0.0000 -0.0000 0.0000 73.1974 -8.7234 59.0100 -37.1450 46.2845 -16.3448 0.0000 -0.0000 -24.2491 -23.8802 -2.0699 0.9161 7.1250 -0.0000 -0.0000 2.1810 -32.2383 0.6818
0.00 0.00 0.00 -156.9970 -83.6013 162.7340 0.0000 0.0000 0.0000 -19.7612 5.8168 -7.8314 1.7400 8.3021 23.6355 2.4200 0.1930 -29.5458 0.6369 -5.1060 -14.2112 0.0000 0.0000 0.0000 16.3065 7.8334 -33.7846 -15.1988 -19.4381 75.8347 -2.4180 4.5314 -28.3839 -0.4720 4.4064 -12.2230 -2.7977 -0.8638 3.4267 -0.2151 -1.2621 0.9895 1.3987 -0.6348 -0.8498 -1.6654 0.1059 -10.7298 7.3799 0.1607 -10.4478 2.6743 -0.1530 -1.5129 0.0000 0.0000 0.0000 -67.6665 19.2520 44.0412 28.5693 -39.6350 -10.4848 -0.0000 0.0000 -17.6905 14.8695 20.2739 5.2565 -7.1250 0.0000 -0.0000 -13.5557 50.4020 -1.8341 0.0000 0.0000 0.0000 68.7862 -9.0080 65.4052 -44.3909 50.4665 -21.7679 0.0000 -0.0000 -22.6962 -23.9836 -2.2009 0.9788 7.1250 -0.0000 -0.0000 2.1026 -32.3837 0.6499
0.00 0.00 0.00 -167.1720 -85.7649 173.2280 0.0000 0.0000 0.0000 -21.5478 9.2071 10.8361 0.1869 2.7843 7.6788 2.1811 2.3334 -28.8277 1.0574 -6.5382 -18.3541 0.0000 0.0000 0.0000 13.2039 12.8171 -53.0449 -11.8807 -18.3398 65.6101 -1.8641 5.6181 -24.6372 -0.4396 4.2543 -11.7933 -4.2469 -2.4597 5.6734 -1.9459 -3.5902 2.3339 0.5905 -1.8379 -0.6372 -1.8463 2.0524 -10.4789 9.2433 2.8529 -10.7837 3.4132 1.1384 -1.8510 0.0000 0.0000 0.0000 -81.8944 -4.6723 56.1279 42.8593 -49.6756 -20.5934 -0.0000 0.0000 -24.0626 16.2599 19.1180 5.4565 -7.1250 0.0000 -0.0000 -11.8035 49.4656 -1.3161 0.0000 0.0000 0.0000 77.9601 -22.6448 47.2625 -28.4907 39.5640 -10.4347 0.0000 -0.0000 -17.0816 -24.5940 1.3094 -0.5993 7.1250 -0.0000 -0.0000 1.5374 -28.5385 0.6163
0.00 0.00 0.00 -203.1160 -83.0404 209.1950 0.0000 0.0000 0.0000 -23.9998 15.4013 18.6370 0.0000 0.0000 0.0000 1.7304 1.3422 -25.3831 1.1445 -6.7932 -19.1042 0.0000 0.0000 0.0000 7.4957 17.9179 -55.7620 -7.9657 -16.0940 52.4390 -1.4631 4.2284 -21.8802 -0.1582 2.5625 -7.0629 -6.9230 -1.4090 6.3859 -2.9745 -2.4080 4.2629 0.9272 -1.3878 0.9898 -2.7657 1.9106 -10.6210 11.1824 2.9165 -12.9165 3.9186 1.0395 -2.2892 -0.0000 -0.0000 0.0000 -81.1975 -15.5126 65.2597 74.5976 -59.0843 -46.7021 -0.0000 0.0000 -25.5366 13.7982 15.1517 3.6728 -7.1250 0.0000 -0.0000 -12.8323 45.1641 -0.0529 -0.0000 -0.0000 0.0000 81.0111 -27.8312 43.9235 -24.1622 35.3353 -7.8001 0.0000 -0.0000 -18.7080 -21.4061 0.7107 -0.2786 7.1250 -0.0000 -0.0000 4.0356 -29.2059 1.5569
0.00 0.00 0.00 -219.9300 -84.6834 229.4630 0.0000 0.0000 0.0000 -19.2351 17.1752 27.5100 0.0000 0.0000 0.0000 0.4133 -3.8529 -11.4359 2.3663 -9.5907 -27.6613 0.0000 0.0000 0.0000 4.7676 18.3550 -60.4624 -11.2330 -18.0472 63.5360 -0.8844 0.8338 -17.5121 -0.2093 -2.9452 8.1263 -2.3577 -2.4694 7.0630 1.4862 -3.5008 3.1903 3.1017 -1.8201 -0.4259 -1.8194 1.6490 -12.2721 8.4903 2.1821 -12.7047 3.1691 0.7124 -2.1422 -0.0000 0.0000 0.0000 -86.8460 -11.1485 57.7525 60.7889 -56.5165 -34.9983 -0.0000 0.0000 -21.4910 16.9056 15.2049 4.5575 -7.1250 0.0000 -0.0000 -10.0193 45.5953 -0.1487 -0.0000 0.0000 0.0000 79.0917 -37.1274 42.8134 -25.2728 36.4815 -8.4515 0.0000 -0.0000 -23.5905 -19.4545 -0.9279 0.3278 7.1250 -0.0000 -0.0000 5.6583 -30.9355 1.9530
0.00 0.00 0.00 -227.1120 -84.7553 236.6390 0.0000 0.0000 0.0000 -19.1392 15.6377 22.5318 0.4631 4.3650 12.1058 0.0461 0.0805 -4.0847 1.1278 -6.7454 -18.9632 0.0000 0.0000 0.0000 6.6215 15.5487 -57.1214 -11.7048 -18.2630 65.0500 -1.0453 1.9696 -18.7654 -0.7421 -5.5029 15.3486 -1.1262 -2.3808 6.4932 2.3863 -3.2757 2.5387 3.3170 -1.6860 -0.8144 -1.1581 1.3326 -12.6383 7.3923 1.6194 -11.6499 2.6404 0.4793 -1.6691 -0.0000 -0.0000 0.0000 -89.2284 -7.2024 54.4638 41.2096 -48.7704 -19.3441 -0.0000 0.0000 -22.0855 20.6497 16.0470 5.9474 -7.1250 0.0000 -0.0000 -6.7579 46.9529 -0.3271 -0.0000 -0.0000 0.0000 79.8639 -33.9468 41.5089 -20.5808 31.3358 -5.8304 0.0000 -0.0000 -22.5220 -22.2313 -0.4861 0.1987 7.1250 -0.0000 -0.0000 3.4343 -30.4952 1.2184
0.00 0.00 0.00 -239.2610 -84.4311 247.8250 0.0000 0.0000 0.0000 -18.4744 15.1464 13.4319 2.9040 10.5379 30.7369 -0.0005 2.5495 1.7532 0.7695 -5.6016 -15.6326 0.0000 0.0000 0.0000 8.1330 12.0057 -51.1296 -11.3184 -18.0874 63.8112 -1.3715 4.6653 -21.1006 -0.8734 -5.9585 16.6641 -0.5741 -1.9746 6.5164 2.5576 -2.6761 1.9352 3.1620 -1.3663 -1.5054 -0.4305 1.0817 -13.3888 6.1178 1.1391 -9.7125 2.0558 0.3267 -0.8746 -0.0000 -0.0000 0.0000 -90.9770 -3.4805 50.2593 26.2031 -37.4086 -9.0107 -0.0000 0.0000 -19.2538 25.4978 16.4482 7.6908 -7.1250 0.0000 -0.0000 -2.2290 48.0795 -0.1694 -0.0000 -0.0000 0.0000 82.9194 -28.4568 34.5664 -14.7950 23.8598 -3.1426 0.0000 -0.0000 -17.7820 -28.4695 0.8907 -0.4830 7.1250 -0.0000 -0.0000 -1.4835 -28.9652 -0.5797
0.00 0.00 0.00 -258.7270 -85.3493 265.9750 0.0000 0.0000 0.0000 -16.2534 14.2386 4.3672 6.8429 15.1981 48.2776 0.0125 0.3037 2.0262 0.8624 -5.9217 -16.5573 0.0000 0.0000 0.0000 10.8361 7.9066 -42.6356 -9.6992 -17.2372 58.4781 -1.5830 6.2442 -22.5794 -0.8517 -5.8859 16.4537 0.9890 -1.5361 6.2194 2.8039 -1.9808 1.5121 2.4858 -1.0162 -1.8604 0.0600 0.8270 -14.3693 4.4258 0.7019 -7.4819 1.4083 0.1973 0.0163 0.0000 0.0000 0.0000 -91.7321 0.0798 44.1415 16.8901 -26.7127 -4.0378 -0.0000 0.0000 -13.7396 25.5277 17.3201 8.0919 -7.1250 0.0000 -0.0000 -2.3664 49.0298 -0.2353 0.0000 0.0000 0.0000 86.5051 -22.4364 20.1247 -11.2293 18.6389 -1.8486 0.0000 -0.0000 -13.0903 -32.3770 1.5162 -0.9612 7.1250 -0.0000 -0.0000 -4.4898 -28.1746 -1.8431
0.00 0.00 0.00 -297.3280 -84.5506 303.1890 0.0000 0.0000 0.0000 -14.8721 11.9609 -7.2334 12.1101 18.4368 66.3373 -0.0755 -4.8726 2.0234 1.1585 -6.8334 -19.2227 0.0000 0.0000 0.0000 13.1880 3.9827 -30.2536 -6.7692 -15.1344 47.9958 -1.6806 5.4151 -23.3639 -1.0508 -6.5183 18.2960 1.2076 -0.7789 5.0247 2.8947 -0.9557 0.8046 2.3645 -0.4970 -1.9594 0.5183 0.6863 -15.3951 2.5321 0.4821 -4.5064 0.7378 0.1616 1.1554 -0.0000 0.0000 0.0000 -89.9367 4.9505 38.9736 10.9043 -18.1415 -1.7460 -0.0000 0.0000 -6.5378 19.7601 17.7322 6.2440 -7.1250 0.0000 -0.0000 -8.0328 48.5796 -0.7135 -0.0000 0.0000 0.0000 88.7027 -17.4644 11.2778 -11.2447 18.6624 -1.8535 0.0000 -0.0000 -13.7708 -34.7026 1.3030 -0.9021 7.1250 -0.0000 -0.0000 -6.2999 -28.3738 -2.5634
0.00 0.00 0.00 -322.0050 -83.7606 326.3450 0.0000 0.0000 0.0000 -16.6913 7.7346 -27.2222 18.5403 19.9488 85.7286 0.0123 -6.6871 -4.9876 1.2941 -7.2076 -20.3318 0.0000 0.0000 0.0000 16.6029 -0.8029 -14.3354 -3.5043 -11.4698 33.8811 -1.1217 1.1453 -19.6739 -1.0688 -6.5724 18.4545 3.3757 2.0004 3.4964 2.5786 2.8113 0.0836 0.6187 1.3662 -1.8403 1.4203 1.4690 -17.2113 -1.1203 1.5377 -0.7457 -0.5067 0.6419 2.7869 0.0000 0.0000 0.0000 -80.2849 14.7626 41.7024 10.7681 -17.9320 -1.7038 -0.0000 0.0000 -4.2159 13.3147 18.0630 4.1968 -7.1250 0.0000 -0.0000 -14.2072 47.9862 -1.0669 0.0000 0.0000 0.0000 86.3424 -12.8983 21.5371 -15.2794 24.5339 -3.3411 0.0000 -0.0000 -14.8330 -35.0647 1.1391 -0.7995 7.1250 -0.0000 -0.0000 -6.5935 -28.5636 -2.6545
0.00 0.00 0.00 -407.6910 -86.5988 411.0880 0.0000 0.0000 0.0000 -18.7893 -1.1000 -47.2502 13.7262 19.0289 71.3666 0.4638 -3.5382 -12.1409 1.1949 -6.9362 -19.5266 0.0000 0.0000 0.0000 25.4994 -5.5784 0.5485 -1.8773 -8.6058 24.5697 -0.8163 -5.6955 -20.0595 -1.5176 -7.7793 22.0457 9.2506 5.1712 3.7500 2.5215 7.1353 1.3592 -2.7215 3.5576 0.1242 1.7573 2.6298 -16.8165 -2.7501 3.1754 0.5332 -0.9784 1.4054 3.2302 0.0000 0.0000 0.0000 -61.7574 34.2456 44.2230 21.4251 -32.3212 -6.2757 -0.0000 0.0000 -16.5642 12.1733 18.8042 3.9776 -7.1250 0.0000 -0.0000 -15.5399 48.5513 -1.3923 0.0000 0.0000 0.0000 72.5360 -1.2255 49.8443 -34.7700 44.6472 -14.6515 0.0000 -0.0000 -18.7653 -27.7873 1.1591 -0.6107 7.1250 -0.0000 -0.0000 -0.9465 -28.6690 -0.3764
0.00 0.00 0.00 -435.9510 -85.9561 439.8420 0.0000 0.0000 0.0000 -19.1866 -3.0286 -47.5974 7.9821 16.1061 52.4983 0.5410 -0.6639 -13.6814 1.2151 -6.9924 -19.6930 0.0000 0.0000 0.0000 26.9879 -7.1249 5.3048 -1.4890 -7.7089 21.8334 -0.7891 -5.2942 -19.5185 -0.4333 -4.2241 11.7079 9.3205 5.4271 3.5266 2.2602 7.3786 2.2237 -2.9399 3.7472 1.2244 1.0049 2.0221 -15.4408 -2.0128 2.5138 0.7205 -0.6589 1.1255 2.9904 0.0000 -0.0000 0.0000 -58.4168 39.6958 45.6646 22.1056 -33.0961 -6.6434 -0.0000 0.0000 -16.9051 12.4973 19.0112 4.1297 -7.1250 0.0000 -0.0000 -15.3162 48.8000 -1.4670 0.0000 -0.0000 0.0000 67.7022 5.6553 55.2935 -45.3130 50.9209 -22.4814 0.0000 -0.0000 -18.3471 -26.7995 1.5231 -0.7692 7.1250 -0.0000 -0.0000 -0.1739 -28.2735 -0.0708
